<svg xmlns="http://www.w3.org/2000/svg" viewBox="0 0 128 128" id="empty-room-small" aria-hidden="true" role="none" data-supported-dps="128x128" width="128" height="128">
  <path d="M88.78 0C39.53 1.3 0 41.1 0 90h90V0h-1.22z" fill="#e8f3ff"/>
  <circle cx="77.5" cy="41.42" r="2.5" fill="#d0e8ff"/>
  <circle cx="69.5" cy="41.42" r="2.5" fill="#d0e8ff"/>
  <circle cx="61.5" cy="41.42" r="2.5" fill="#d0e8ff"/>
  <circle cx="53.5" cy="41.42" r="2.5" fill="#d0e8ff"/>
  <circle cx="45.5" cy="41.42" r="2.5" fill="#d0e8ff"/>
  <circle cx="37.5" cy="41.42" r="2.5" fill="#d0e8ff"/>
  <circle cx="29.5" cy="41.42" r="2.5" fill="#d0e8ff"/>
  <circle cx="21.5" cy="41.42" r="2.5" fill="#d0e8ff"/>
  <circle cx="13.5" cy="41.42" r="2.5" fill="#d0e8ff"/>
  <circle cx="5.5" cy="41.42" r="2.5" fill="#d0e8ff"/>
  <path fill="#38434f" d="M18 99h1v20h-1z"/>
  <path d="M12 119v-.94c0-1.14.92-2.06 2.06-2.06h8.88c1.14 0 2.06.92 2.06 2.06v.94h1v-.94a3.06 3.06 0 00-3.06-3.06h-8.88a3.06 3.06 0 00-3.06 3.06v.94h1z" fill="#38434f"/>
  <path d="M17 119.5c0 .83.67 1.5 1.5 1.5s1.5-.67 1.5-1.5-.67-1.5-1.5-1.5-1.5.67-1.5 1.5zM10 119.5c0 .83.67 1.5 1.5 1.5s1.5-.67 1.5-1.5-.67-1.5-1.5-1.5-1.5.67-1.5 1.5zM24 119.5c0 .83.67 1.5 1.5 1.5s1.5-.67 1.5-1.5-.67-1.5-1.5-1.5-1.5.67-1.5 1.5z" fill="#464f6a"/>
  <path d="M12 91V70c0-2.76 2.24-5 5-5h13c2.76 0 5 2.24 5 5v23c0 4.42-3.58 8-8 8H9c-2.76 0-5-2.24-5-5v-5h8z" fill="#6692b8"/>
  <path fill="#38434f" d="M52 99h1v20h-1z"/>
  <path d="M46 119v-.94c0-1.14.92-2.06 2.06-2.06h8.88c1.14 0 2.06.92 2.06 2.06v.94h1v-.94a3.06 3.06 0 00-3.06-3.06h-8.88a3.06 3.06 0 00-3.06 3.06v.94h1z" fill="#38434f"/>
  <path d="M51 119.5c0 .83.67 1.5 1.5 1.5s1.5-.67 1.5-1.5-.67-1.5-1.5-1.5-1.5.67-1.5 1.5zM44 119.5c0 .83.67 1.5 1.5 1.5s1.5-.67 1.5-1.5-.67-1.5-1.5-1.5-1.5.67-1.5 1.5zM58 119.5c0 .83.67 1.5 1.5 1.5s1.5-.67 1.5-1.5-.67-1.5-1.5-1.5-1.5.67-1.5 1.5z" fill="#464f6a"/>
  <path d="M45 91V70c0-2.76 2.24-5 5-5h13c2.76 0 5 2.24 5 5v23c0 4.42-3.58 8-8 8H42c-2.76 0-5-2.24-5-5v-5h8z" fill="#6692b8"/>
  <path fill="#6e6558" d="M0 93v2.98h70.13V128H73V93H0z"/>
  <path fill="#e9e5df" d="M0 85h73v10H0z"/>
  <path fill="#c0d1e2" d="M90 0h38v98H90z"/>
  <path d="M93 15v10.61c1.96.98 3.64 2.44 4.88 4.25 2.78 3.62 2.33 5.93 5.12 8.14.12.09 3 4 3 4l3 6v20c0 1.94-.59 3.84-1.69 5.44l-6.4 9.33L99 98h-6v17l35-12V3L93 15z" fill="#f6fbff"/>
  <path fill="#f5cea9" d="M91 98h2v2h-2z"/>
  <path fill="#3a8ce9" d="M91 100h2v8h-2z"/>
  <path d="M93 107h-1.77a.47.47 0 00-.45.49v1.01c-.02.26.18.48.44.5H93v-2z" fill="#0d2135" fill-rule="evenodd"/>
  <path fill="#dad6d7" d="M93 98h4v2h-4z"/>
  <path fill="#f5cea9" d="M85.5 88.07l5.5 4.1-3.69 2.81-4.91-2.69 3.1-4.22z"/>
  <path d="M108 36l-5 2c1 1.41 2 2.62 2.84 3.87l2.75-2.12a14.59 14.59 0 016-3 13 13 0 005.23-2c.32-.24.18-.76.18-.76h-7c-1.85.07-3.62.78-5 2.01z" fill="#dad6d7"/>
  <path fill="#c7cfd7" d="M126 18h-1l-4 15h-16v1h17l4-16z"/>
  <path fill="#043a20" d="M83.94 90.19l6.87 4.26-.64-14.29-6.23 10.03z"/>
  <path d="M83.17 6.88c.31 0 .61.07.9.11-.3-.06-.6-.09-.9-.11z" fill="#f5cea9"/>
  <path d="M77.26 34.73c-.12-.16-.14-.18 0 0z" fill="#ef89b2"/>
  <path fill="#004d2a" d="M89 53h4v45h-4z"/>
  <path d="M89.9 10.82c-2.27-3.92-7.3-5.26-11.22-2.99-.76.44-1.44 1-2.02 1.65-2.77 2.85-4 5.92-5.15 10.14-1.27 4.8-1.86 8.94-7.51 11.82 3.82 2.7 8.56 3.74 13.16 2.91-1-3.45.38-4.57 2.65-6.4.34-.28 8-1.95 8-1.92.21 0 2.06-.52 2.23-.54 2.17-5.71 1.96-10.64-.14-14.67z" fill="#4f1351"/>
  <path d="M93 25.61c-.73-.3-1.5-.48-2.29-.52-1.62.03-3.24.2-4.83.49-1.56.25-3.13.51-4.67.89-1.9.47-4.19 1.44-4.77 3.5-.54 1.91.27 3.77 1.33 5.33 1.15 1.72 3 4.08 4.23 5.7 1.45 1.57 2.79 3.24 4 5a33.05 33.05 0 013 7h4V25.61z" fill="#ef89b2"/>
  <path d="M105 49.21l4-1.21-3-6s-2.88-3.91-3-4c-2.79-2.21-2.34-4.52-5.12-8.14A12.91 12.91 0 0093 25.61V53l12-3.79z" fill="#f5e3f0"/>
  <path d="M103.53 20.27c-.22.22-1 1.79-1.29 1.61-.19-.11.36-1.5.75-3.35.07-.32-.48-.71-.7-.09-.4 1.16-.55 1.63-.83 2.44-.06.15-.29.67-.47.65-.44-.07 0-2 .31-3.42a.438.438 0 00-.81-.3c-.16.32-.54 2.28-.7 3-.06.29-.08.77-.39.8s-.3-1-.36-1.5 0-1.57-.5-1.82c-.73-.35-.53 1.33-.51 1.59.07 1 .07 2.1.18 3.12-.57-.7-.89-1.83-1.83-2.12-.23-.07-.72.08-.49.47.48.71.85 1.48 1.11 2.3.3 2.22 1 2.78.69 3.91-.09.3-4.67 9-4.67 9-1.53-.71-3-1.54-4.39-2.48-1.31-.82-2.56-1.72-3.75-2.7a21.688 21.688 0 00-3.71-2.67 3.11 3.11 0 00-4.44 3.54A7.635 7.635 0 0079.29 36c3 2.55 11.41 7.32 14.38 7.44.66.03 1.3-.19 1.79-.63.48-.46 1.58-1.35 2.81-4.7 1.08-2.75 1.95-5.58 2.59-8.46.22-1.26.61-2.49 1.14-3.65.45-.92.82-1.88 1.18-2.83.38-.86.66-1.76.84-2.68a.295.295 0 00-.24-.32.273.273 0 00-.25.1z" fill="#f5cea9" fill-rule="evenodd"/>
  <path d="M93 100v9h10.46c1.03.04 1.9-.77 1.94-1.8v-.02c-.02-.99-.75-1.83-1.73-2l-1.86-.36c-2.17-.42-4.38-2.44-4.71-3.58-.08-.41-.11-.82-.1-1.24h-4z" fill="#cdddf0" fill-rule="evenodd"/>
  <path d="M105.42 107H93v2h10.82c.98-.13 1.68-1.02 1.58-2h.02zM100.78 104.25c.07-.25-.4-.36-.46-.11l-.31 1.09c-.03.1.04.2.14.23.1.06.24.03.3-.07 0-.01.01-.02.02-.04l.31-1.1zM99.23 103.46c.14-.22-.29-.44-.42-.22s-.44.73-.6 1c-.05.08-.03.18.05.23 0 0 .02.01.03.02.09.09.23.1.32.02 0 0 .01 0 .02-.02.15-.25.45-.73.6-1v-.03zM98.24 102.58c.2-.18-.16-.5-.34-.32l-.84.8c-.07.07-.08.18-.02.25l.02.02c.07.11.21.14.32.08 0 0 .02-.01.02-.02l.84-.81zM97.38 101.41c.23-.13 0-.53-.24-.4l-1 .57c-.09.05-.12.16-.07.24.02.11.13.19.25.16.02 0 .04-.01.06-.02l1-.56z" fill="#c7cfd7" fill-rule="evenodd"/>
  <path d="M89.17 104.05c-.32-.48-1.18-1.48-1.54-2a6.883 6.883 0 01-.94-6.12c.13-.48.45-.88.88-1.12L83.36 91l-5.27 5.78c-.21.29-.44.56-.69.82l10.6 8.6.57-.2s1.18-1.09.6-1.95z" fill="#2c64b2"/>
  <path fill="#0d2135" d="M88.6 106l.01.01-.01-.01zM78.24 96.86s-.09-.07-.15-.08c-.16-.05-.33 0-.44.11l-.56.62c-.17.16-.17.43 0 .59l9.08 8.08c.73.56 1.77.48 2.4-.19l-10.33-9.14z"/>
  <path d="M87.21 101.08c.23-.13 0-.54-.24-.42l-1 .56c-.09.06-.11.17-.06.26.03.12.16.19.28.16h.03l1-.55h-.01zM86.67 99.58c.26-.07.12-.52-.13-.46l-1.12.27c-.1.03-.16.13-.13.23 0 .13.12.24.25.23h.02l1.11-.27zM86.4 98.05c.27 0 .24-.46 0-.46h-1.17c-.1 0-.18.09-.19.19 0 .13.06.28.2.28h1.16zM86.52 96.57c.26.08.36-.38.11-.45l-1.14-.33c-.09-.03-.2.02-.23.12v.01c-.06.11-.01.25.1.31h.02l1.14.33z" fill="#0d2135" fill-rule="evenodd"/>
  <path d="M84.73 21.25c-1.62-2.62-1.16-4.5-1.79-6.13s-1.17-1.93-4.13-2.6a5.81 5.81 0 01-2.39-1c-.4 1.01-.5 2.12-.29 3.19.23 1.49-.28 2.4-.11 3s1.08.3 1.31 1.52c.5 2.16.65 2.2 3 2.41 1.68.15 1.29 3.07.88 4.88 6.33 3.57 8-1.38 8-1.38a12.35 12.35 0 01-4.48-3.89z" fill="#f5cea9"/>
</svg>
